<?xml version="1.0" standalone="no"?>
<!DOCTYPE svg PUBLIC "-//W3C//DTD SVG 20010904//EN"
 "http://www.w3.org/TR/2001/REC-SVG-20010904/DTD/svg10.dtd">
<svg version="1.0" xmlns="http://www.w3.org/2000/svg"
 width="532.000000pt" height="532.000000pt" viewBox="0 0 532.000000 532.000000"
 preserveAspectRatio="xMidYMid meet">

<g transform="translate(0.000000,532.000000) scale(0.100000,-0.100000)"
fill="#000000" stroke="none">
<path d="M223 4351 c-58 -7 -77 -20 -71 -47 6 -33 176 -165 2145 -1661 190
-145 353 -263 364 -263 10 0 142 93 293 208 151 114 584 441 962 727 585 442
812 617 1181 909 95 76 93 113 -9 127 -64 9 -4791 9 -4865 0z"/>
<path d="M0 2606 l0 -1336 42 -86 c50 -101 115 -179 173 -205 38 -18 137 -19
2445 -19 2324 0 2406 1 2446 19 75 34 146 121 188 230 l21 56 3 1316 c1 724
-1 1326 -5 1337 -8 20 -26 8 -218 -140 -116 -89 -370 -283 -565 -432 -440
-335 -1763 -1349 -1810 -1388 -19 -15 -45 -28 -58 -28 -15 0 -120 74 -300 213
-1182 908 -2314 1772 -2344 1788 -17 9 -18 -53 -18 -1325z"/>
</g>
</svg>
