<?xml version="1.0" standalone="no"?>
<!DOCTYPE svg PUBLIC "-//W3C//DTD SVG 20010904//EN"
 "http://www.w3.org/TR/2001/REC-SVG-20010904/DTD/svg10.dtd">
<svg version="1.0" xmlns="http://www.w3.org/2000/svg"
 width="532.000000pt" height="532.000000pt" viewBox="0 0 532.000000 532.000000"
 preserveAspectRatio="xMidYMid meet">

<g transform="translate(0.000000,532.000000) scale(0.100000,-0.100000)"
fill="#000000" stroke="none">
<path d="M1190 4974 c-46 -21 -116 -86 -416 -387 -226 -226 -372 -380 -390
-411 -15 -27 -38 -77 -51 -113 -65 -179 3 -574 167 -977 153 -374 377 -731
716 -1141 226 -274 727 -748 1027 -973 347 -261 804 -503 1135 -601 217 -64
341 -84 537 -85 l180 -1 70 35 c63 31 107 71 448 409 262 260 384 388 398 419
43 87 11 202 -73 265 -18 14 -157 98 -308 188 -781 461 -752 447 -857 436
-101 -11 -147 -41 -320 -215 -96 -96 -171 -164 -187 -168 -89 -22 -274 61
-501 225 -315 227 -569 478 -804 791 -108 144 -158 229 -232 400 -41 93 -49
121 -44 149 5 27 39 67 156 186 156 159 182 198 193 287 10 77 -9 131 -133
362 -65 122 -186 352 -270 513 -84 160 -169 311 -189 334 -49 57 -117 99 -161
99 -20 0 -61 -12 -91 -26z"/>
</g>
</svg>
